<svg width="300" height="300" xmlns="http://www.w3.org/2000/svg">

 <g>
  <title>Layer 1</title>
  <line stroke-linecap="undefined" stroke-linejoin="undefined" id="svg_9" y2="389.2" x2="149" y1="251.2" x1="149" stroke-width="10" stroke="#000" fill="none"/>
  <line stroke-linecap="undefined" stroke-linejoin="undefined" id="svg_10" y2="49.2" x2="149" y1="-88.8" x1="149" stroke-width="10" stroke="#000" fill="none"/>
  <path transform="rotate(150 149.565 150.819)" stroke="#000" id="svg_23" d="m95.54368,223.92163c6.53854,-0.08872 13.07708,-0.17746 19.61562,-0.26617c0.04305,-14.03357 0.08609,-28.06714 0.12914,-42.1007c6.5073,0 13.01461,0 19.52192,0c0,-14.11967 0,-28.23934 0,-42.359c6.67395,0 13.34788,0 20.02183,0c0,-13.77528 0,-27.55057 0,-41.32585c6.59154,0 13.18309,0 19.77464,0c0,-13.77528 0,-27.55057 0,-41.32585c9.80493,0 19.60986,0 29.41479,0c0,6.88764 0,13.77528 0,20.66293c-6.50917,0 -13.01831,0 -19.52747,0c0,13.94747 0,27.89495 0,41.84243c-6.59154,0 -13.18309,0 -19.77464,0c0,13.94748 0,27.89495 0,41.84243c-6.59155,0 -13.18309,0 -19.77464,0c0,13.94747 0,27.89495 0,41.8424c-6.67395,0 -13.34789,0 -20.02183,0c0,14.11968 0,28.23934 0,42.359c-9.88733,0 -19.77464,0 -29.66197,0c0.44078,-6.84458 -0.75143,-14.56261 0.28262,-21.17159l0,-0.00001z" stroke-width="10" fill="none"/>
 </g>
</svg>